PathFileType	4	(X/Y/Z)	Kaydara	
DataRate	CameraRate	NumFrames	NumMarkers	Units	OrigDataRate	OrigDataStartFrame	OrigNumFrames	
240.00	240.00	4	72	mm	240.00	135	359	
Frame#	Time	Hips			RightUpLeg			RightLeg			RightFoot			RightFoot_End			LeftUpLeg			LeftLeg			LeftFoot			LeftFoot_End			Spine			Spine1			Spine2			Spine3			Neck			Head			Head_End			RightShoulder			RightArm			RightForeArm			RightHand			RightHandThumb1			RightHandThumb2			RightHandThumb3			RightHandThumb3_End			RightInHandIndex			RightHandIndex1			RightHandIndex2			RightHandIndex3			RightHandIndex3_End			RightInHandMiddle			RightHandMiddle1			RightHandMiddle2			RightHandMiddle3			RightHandMiddle3_End			RightInHandRing			RightHandRing1			RightHandRing2			RightHandRing3			RightHandRing3_End			RightInHandPinky			RightHandPinky1			RightHandPinky2			RightHandPinky3			RightHandPinky3_End			LeftShoulder			LeftArm			LeftForeArm			LeftHand			LeftHandThumb1			LeftHandThumb2			LeftHandThumb3			LeftHandThumb3_End			LeftInHandIndex			LeftHandIndex1			LeftHandIndex2			LeftHandIndex3			LeftHandIndex3_End			LeftInHandMiddle			LeftHandMiddle1			LeftHandMiddle2			LeftHandMiddle3			LeftHandMiddle3_End			LeftInHandRing			LeftHandRing1			LeftHandRing2			LeftHandRing3			LeftHandRing3_End			LeftInHandPinky			LeftHandPinky1			LeftHandPinky2			LeftHandPinky3			LeftHandPinky3_End			
		X1	Y1	Z1	X2	Y2	Z2	X3	Y3	Z3	X4	Y4	Z4	X5	Y5	Z5	X6	Y6	Z6	X7	Y7	Z7	X8	Y8	Z8	X9	Y9	Z9	X10	Y10	Z10	X11	Y11	Z11	X12	Y12	Z12	X13	Y13	Z13	X14	Y14	Z14	X15	Y15	Z15	X16	Y16	Z16	X17	Y17	Z17	X18	Y18	Z18	X19	Y19	Z19	X20	Y20	Z20	X21	Y21	Z21	X22	Y22	Z22	X23	Y23	Z23	X24	Y24	Z24	X25	Y25	Z25	X26	Y26	Z26	X27	Y27	Z27	X28	Y28	Z28	X29	Y29	Z29	X30	Y30	Z30	X31	Y31	Z31	X32	Y32	Z32	X33	Y33	Z33	X34	Y34	Z34	X35	Y35	Z35	X36	Y36	Z36	X37	Y37	Z37	X38	Y38	Z38	X39	Y39	Z39	X40	Y40	Z40	X41	Y41	Z41	X42	Y42	Z42	X43	Y43	Z43	X44	Y44	Z44	X45	Y45	Z45	X46	Y46	Z46	X47	Y47	Z47	X48	Y48	Z48	X49	Y49	Z49	X50	Y50	Z50	X51	Y51	Z51	X52	Y52	Z52	X53	Y53	Z53	X54	Y54	Z54	X55	Y55	Z55	X56	Y56	Z56	X57	Y57	Z57	X58	Y58	Z58	X59	Y59	Z59	X60	Y60	Z60	X61	Y61	Z61	X62	Y62	Z62	X63	Y63	Z63	X64	Y64	Z64	X65	Y65	Z65	X66	Y66	Z66	X67	Y67	Z67	X68	Y68	Z68	X69	Y69	Z69	X70	Y70	Z70	X71	Y71	Z71	X72	Y72	Z72	

135	0.558	4198.941	914.58397	126.699	4254.112282719066	896.8047450906305	53.24985541062789	4158.808740125783	500.3883811575671	-43.04006272315477	4141.497508605899	108.94010491532006	-118.86296805530965	3989.9540081401424	32.17932794988076	-31.22464959528923	4158.0778266905445	906.1841622483486	211.4888610768858	4066.2720087420525	504.2931194735641	285.40394830937686	3993.276957830308	79.8738639516567	375.62183735560654	3871.7671208248807	-2.5574762918995053	253.23180971535942	4132.296830427386	1032.1161053699777	79.38899508518446	4070.7463499050173	1088.7956472028825	29.98887512429892	4003.7654046224034	1140.7603027126877	-25.262587468841765	3935.975948852699	1178.8467356708786	-83.4945530803945	3862.406089870548	1220.01394873387	-144.03781458736125	3793.7515514425686	1257.8850351438568	-196.57433919150267	3654.8395166512037	1335.5509814918305	-205.41133592817056	3906.901721614595	1206.717729907812	-147.83364542348093	3964.42695421384	1191.020074754911	-259.25695309477703	4035.734463426303	939.8366721952756	-279.3253442103952	4037.374039326635	811.4351808765441	-476.7313200296436	4044.6296435734844	825.5092128580716	-501.6250252564779	4030.68737777899	830.4349734285694	-528.188783287393	4020.7433967299394	830.3822249029924	-546.8764140824935	4012.2528444953455	827.3585844962741	-562.6168530406824	4046.6757686790934	814.2585635796154	-504.93656130929475	4050.3999766002344	805.8975828505572	-547.2203498589657	4041.1260962103383	800.3789007258686	-574.768724112558	4028.749604155857	800.5984989989903	-587.4305356494309	4014.0463153797277	803.242685929123	-594.8989345174506	4045.3441167641363	805.0904792553973	-503.88866327063545	4048.2596918922295	791.9763254938742	-544.5647206132268	4037.937433932466	784.7721283320963	-574.347714772173	4022.908409706323	784.4697722787448	-589.4904197275032	4006.7730679349315	787.0872041251847	-597.5973875079102	4044.4279591327313	798.7991145631717	-502.09801304828414	4046.5957925150574	781.5044577772436	-537.0814569119947	4037.385865706484	774.03788379253	-562.6920973593609	4022.776046793574	773.1156847765391	-577.1134457621483	4007.5511360307996	775.277926895327	-584.6483673356964	4042.3212669799013	792.0066402349936	-498.5830510271325	4043.413644274691	771.8616588908151	-528.6126724760458	4035.6960303598667	764.1058918202552	-548.4245235041927	4024.8738093091424	762.5737320410539	-558.6067371944735	4011.291624267826	763.9944746882352	-565.0876340814426	3866.703429379318	1206.1417255728945	-98.84519843015032	3816.677561117783	1148.58142696712	2.3783589001035086	3944.2237313534165	988.1348481838396	-161.60738669580803	4026.5940976529673	871.3673863516688	-369.2925144512257	4052.4502179852843	882.3141263098904	-386.04741704695164	4086.8429425118666	873.0432833626409	-394.7008032391793	4109.852244263525	863.3977158346454	-401.69724007394245	4128.2284199721735	852.6282221749394	-408.3598631258558	4050.7054140832224	873.0125210402412	-392.5477730562065	4087.2710081759633	858.8157402681644	-425.2548156780657	4116.675026311458	842.9162777238337	-440.08273518890127	4135.057846305651	833.426877911754	-441.6185492706785	4150.342337801349	825.8391418509622	-437.7075253167237	4047.059311914175	864.5460071741392	-393.6711526042062	4080.750984286994	846.1210743955088	-426.1825170308006	4112.241860545318	827.6929897517766	-442.3949561060703	4134.134646905487	815.7267911134152	-444.2632984111889	4150.719900669403	807.172811753093	-439.9914330229502	4043.511173754892	858.9641509064788	-393.7235888669488	4070.5112923645447	837.7158451126454	-423.1790518190479	4097.298289233774	820.5800361089109	-437.2905428199022	4118.064817761531	808.4674257321316	-439.08243106675246	4133.492902503409	800.1542967461528	-435.06091559439363	4038.670182691471	852.6470150393349	-392.10068120858165	4060.3307885648974	829.3847928906501	-418.44051328957516	4080.632807711685	814.0801714216915	-429.58117298407905	4095.224668333159	804.4794792654939	-430.8111227043634	4108.571836567755	796.6747312459194	-427.20436518289927
136	0.563	4198.941	914.58397	126.699	4254.064151474811	896.7638717631771	53.236457169993464	4158.735178624061	500.3642095346056	-43.093662184369705	4141.477141100319	108.91892875010784	-118.93248197750663	3989.935940648037	32.16139484227758	-31.287370220877477	4158.117909613462	906.2205082409896	211.50147237861736	4066.33366049626	504.3206422902416	285.3934307707639	3993.2826121853354	79.90041720852317	375.54575035587357	3871.7775289792194	-2.533660230950968	253.1528954566586	4132.334891351964	1032.1383215214698	79.3932647816941	4070.803931366485	1088.8390971827894	29.993550824830425	4003.8411587554992	1140.8280343121037	-25.256998818322074	3936.0624807546806	1178.9381070208751	-83.48662690990608	3862.503870648127	1220.128410993401	-144.02848243796828	3793.860415040355	1258.0199561417312	-196.56526518443707	3654.9520673263996	1335.6780553028568	-205.45980404883184	3906.9706380422363	1206.7830734940642	-147.81997999454546	3964.3145569586354	1190.7725428905767	-259.1482466926668	4035.170500481102	939.8568787035327	-278.36087480630925	4036.160170169487	811.0944693900386	-475.3330258320474	4043.5287373404885	825.2133783402595	-500.2751515957767	4029.6483385548136	830.0821606130368	-526.9229902541533	4019.7225588345837	829.9766042270056	-545.6622628815941	4011.225893551443	826.8977091617608	-561.4398399468503	4045.494392278413	813.9263311279125	-503.5610979936935	4049.183050690739	805.5012621209471	-545.8768967269543	4039.893168789677	799.9030156840058	-573.4756101417971	4027.5345523826454	800.0696232809917	-586.18726845453	4012.864827583216	802.6675719346448	-593.7094384122828	4044.096715284651	804.7231085529542	-502.4946196343678	4046.9419012953117	791.5274491967623	-543.1918407045144	4036.593596676981	784.2319591907559	-573.0272446434232	4021.582019168377	783.8635257142495	-588.2288782848462	4005.481399444757	786.4293210858291	-596.3940932589558	4043.1345598980342	798.408811006239	-500.68970170771894	4045.198624765422	781.0219512591259	-535.6787800054757	4035.9573339814006	773.4713607601334	-561.332495245106	4021.3597439892837	772.4830640676487	-575.8093010957944	4006.165301113982	774.5956364108677	-583.3983340186794	4040.9779185563216	791.5897412085616	-497.1599188084757	4041.9434475990965	771.3446360886286	-527.1844948887333	4034.1876603336814	763.5150564658966	-547.0267510600403	4023.36804210352	761.9315236184892	-557.2474380658379	4009.809210954288	763.3064470924415	-563.7751308358551	3866.823718461655	1206.2907962750912	-98.84178301251852	3816.879068016224	1149.0509263100537	2.446245200847694	3944.0136508995206	988.3484622814526	-161.11760694948654	4025.2286658217267	870.8959668900545	-368.2032788916261	4051.0963909951242	881.8459827726535	-384.9449192575923	4085.3354503686655	872.5255371191205	-393.50438348798383	4108.20834455791	862.8355654446619	-400.4268298985372	4126.44565612309	852.0206179077543	-407.02042825947353	4049.2538741184253	872.5112674923614	-391.41823369550866	4085.5502698123873	858.223918590502	-424.0104334207001	4114.731719888183	842.2510744709214	-438.7320277935322	4133.001664299595	832.7254297960131	-440.2031489230947	4148.209925359545	825.1140185502601	-436.2395290804747	4045.535516690524	864.0205933528051	-392.5210111803193	4078.9255487309756	845.494257653906	-424.90922463508196	4110.16485413431	826.9831919821137	-441.00326296990954	4131.91728319947	814.9718703716745	-442.792414174547	4148.417096441858	806.3913081909956	-438.4624443677225	4041.9433121974616	858.4240014867959	-392.56201160209133	4068.635175426044	837.0720934467862	-421.8977330021397	4095.19447935805	819.8611459713255	-435.90378616326217	4115.82114867206	807.7035179529395	-437.6180989977851	4131.166778367403	799.3646865713703	-433.54138701645456	4037.0584482814493	852.0923274407899	-390.9277604364849	4058.4095659135814	828.7261661073256	-417.1513709216888	4078.5174595033964	813.3574415203707	-428.20462688788274	4093.001599583981	803.7220098744684	-429.3765544779745	4106.272441838834	795.893398072176	-425.72007408803466
137	0.567	4198.941	914.58397	126.699	4254.014612792107	896.7227783144511	53.22215894610418	4158.66136471655	500.33965513684046	-43.14855278331757	4141.456491498152	108.89719280272296	-119.00229876131623	3989.91739321613	32.14385457962776	-31.349905353742763	4158.159643849419	906.2571456928591	211.51481802095313	4066.3997379702414	504.3484302516487	285.3867894862277	3993.2896284223875	79.9272336708124	375.4706940854434	3871.789089549952	-2.5087947581800965	253.07469494570176	4132.371927440313	1032.1602294470545	79.398320338351	4070.8600055660177	1088.8814993032254	29.998851780796265	4003.9150779659494	1140.8940089481941	-25.250954235358176	3936.1470942194583	1179.0272552005383	-83.47834930912629	3862.5995635818663	1220.239976964669	-144.0189405757871	3793.9670154420064	1258.1513223630068	-196.55613005870808	3655.0607742661655	1335.7987461074829	-205.50865130490737	3907.0368723657616	1206.8436000646038	-147.80661773007535	3964.1981072917915	1190.511656015979	-259.0387565610646	4034.5921847260042	939.868004082403	-277.37874438799525	4034.939631685996	810.7847705177327	-473.91282158037234	4042.419855951408	824.9503770910405	-498.90083046597215	4028.600360415498	829.7649053770803	-525.629961932513	4018.692320071347	829.6087072346012	-544.4189980552846	4010.1893356651067	826.4765935433584	-560.2322012092831	4044.305687204821	813.6281004861227	-502.16118241232493	4047.9584941735616	805.1443479087901	-544.5053314242833	4038.6523139438914	799.4700993430728	-572.1518266780515	4026.311194093384	799.5851832289287	-584.911968788037	4011.6745881598076	802.1376033555072	-592.4869346606026	4042.8425606096675	804.3902736910123	-501.07642214463885	4045.617374292743	791.1186692248423	-541.7913986664555	4035.2427759749135	783.7358261360683	-571.6764730173162	4020.2482245868764	783.3031103004691	-586.9354155125271	4004.1818578174275	785.8180581536898	-595.1578227096386	4041.8348239391335	798.0532874537598	-499.2575405281968	4043.7955032020905	780.5794343337185	-534.2494620286719	4034.522711585322	772.9483062372661	-559.9439221372738	4019.9369864740884	771.8956672312029	-574.4746536457221	4004.772590240751	773.9593229779131	-582.1168205409538	4039.628704928199	791.2077089183413	-495.71339484353854	4040.4680348765646	770.8673295966523	-525.7306459620864	4032.674085268624	762.9667707181064	-545.6015438275048	4021.856862804541	761.3331681796932	-555.8596363398485	4008.3210459478782	762.6629529090026	-562.4332876551629	3866.942666560544	1206.4394087474188	-98.83756027272081	3817.0802461011967	1149.5259217746109	2.5179167477087354	3943.798152433143	988.5633750190991	-160.61317655736562	4023.872384214744	870.4547725879819	-367.09698251106784	4049.7500678520787	881.4060496313493	-383.82487896090424	4083.835253716584	872.0357339817613	-392.2890868019753	4106.571948871066	862.301316860745	-399.13607985460186	4124.670872708098	851.4410049273287	-405.6589773768228	4047.8109041811017	872.0383945762671	-390.26908149459973	4083.838745023091	857.6589057145045	-422.74104850644034	4112.798344506811	841.6124619425995	-437.3531709513085	4130.955669336852	832.0509215716688	-438.75882723317085	4146.087783719913	824.4164510839245	-434.7427715527646	4044.021243732587	863.5240503606906	-391.3500217747105	4077.110778161152	844.8950434631339	-423.60915893933236	4108.099419464088	826.300829693764	-439.58121800235267	4129.711859563884	814.2448403324779	-441.2901774223584	4146.1263528365	805.6383858477955	-436.90224454019057	4040.385628980049	857.913100978236	-391.37884059891206	4066.770829500801	836.4567582662999	-420.5888314515667	4093.1033556979205	819.1706011935797	-434.48618928452544	4113.590587405967	806.9684342484585	-436.12188784069144	4128.853906725564	798.6045684668744	-431.99007743511913	4035.4576320317597	851.5674352444272	-389.7326267852567	4056.5011775496605	828.0968798545276	-415.8341032549644	4076.4158662256377	812.664115160398	-426.79715715855065	4090.7926841141552	802.994351245098	-427.9102130862294	4103.987380880318	795.1425007445024	-424.2040438455173
138	0.571	4198.941	914.58397	126.699	4253.963695653304	896.6814907757206	53.20695837946346	4158.587332184598	500.3147991976636	-43.204975448228325	4141.435717715542	108.87496219804017	-119.07259983478014	3989.8985451792423	32.1267380908257	-31.412429294500928	4158.203028667445	906.2940700812094	211.52891376697883	4066.4699899789302	504.3765539161374	285.38413648015944	3993.2979452129343	79.9543095702576	375.3966015609226	3871.8017052620917	-2.4828207629950976	252.99713545617894	4132.407811345645	1032.1817316193226	79.40410208377426	4070.9144538424252	1088.9227002968773	30.004639611572024	4003.987068199897	1140.9580222754066	-25.244671927465678	3936.22974368017	1179.1139579394567	-83.47000205497037	3862.6931784558337	1220.348421973223	-144.0095355687016	3794.0714119628046	1258.2789280323063	-196.54732874100338	3655.1660156114795	1335.9134696609199	-205.55805167279922	3907.100393416397	1206.8989476266595	-147.79390504938664	3964.0776333831604	1190.2375012886905	-258.92882131955895	4034.001870598117	939.8716493954391	-276.38232875259257	4033.716255909267	810.5116348676002	-472.47299035570904	4041.306533647828	824.7252823737626	-497.50426163178616	4027.5470000447294	829.4881434604583	-524.3114720027273	4017.656320505017	829.2833979106681	-543.1480628848013	4009.1469383699746	826.1000623423039	-558.9950758743402	4043.113389317326	813.3689522563818	-500.7389075279765	4046.730207576564	804.8314428725784	-543.1072382681375	4037.4076212237314	799.0846083625951	-570.798489088045	4025.0837092340685	799.1496646889752	-583.6054642469197	4010.4798335824626	801.6573711134355	-591.2320152348268	4041.5855706876873	804.0971460852177	-499.636084439006	4044.2902879091134	790.7547398774889	-540.3648691380291	4033.889378694158	783.2883379216944	-570.2963538520319	4018.9115532037904	782.793176614323	-585.6106338913609	4002.8790376516927	785.2581840851408	-593.8889184349601	4040.5327933559383	797.7377898407311	-497.80350093423056	4042.390809075397	780.181838449699	-532.7949571773105	4033.0866038035556	772.4735395558952	-558.5273700816799	4018.512508234136	771.3583617726144	-573.1101520214578	4003.3778066871264	773.3739689263949	-580.8042290370004	4038.277808733719	790.8659034705216	-494.2454099599985	4038.9919855710727	770.4348751568559	-524.2525597821809	4031.160099518022	762.4661049358177	-544.1499550906506	4020.3451768064756	760.783783017719	-554.4441296082781	4006.832105917808	762.0692179505199	-561.0626808089432	3867.060289309447	1206.5874815084258	-98.83283443067376	3817.2812583066407	1150.0064826718458	2.59299882811371	3943.5768370391243	988.779870454404	-160.0936553324616	4022.5280196232893	870.0457516260911	-365.97190777463425	4048.413354622931	880.9963380770251	-382.6853056359646	4082.3446768012495	871.5763298406192	-391.0529657827999	4104.945704119789	861.7977714994176	-397.82307503299	4122.907131694377	850.892503364427	-404.2736247455322	4046.379120878913	871.5960226430195	-389.0982731896918	4082.139631058362	857.1233268016545	-421.4442870965863	4110.878719682703	841.0035506773851	-435.9437558084826	4128.924003432607	831.4067707736501	-437.28328427048973	4143.980278422549	823.7501146165214	-433.21513111459774	4042.5195641660193	863.0585848361512	-390.15616857442126	4075.310555817503	844.3261774694889	-422.2799965034442	4106.050177156341	825.6491880990668	-438.1264644914484	4127.523413704163	813.5493613422756	-439.75436522061625	4143.852965755432	804.9179892706071	-435.3088068652101	4038.8415005279617	857.4337030784229	-390.17208584939306	4064.9226209915823	835.8726141660347	-419.25009792569193	4091.0299857387317	818.511655952058	-433.03547949464854	4111.378634780298	806.2657955762323	-434.5916568963981	4126.560045846733	797.8778329575783	-430.40503209162176	4033.8714531879446	851.0746398383359	-388.51334555992736	4054.6104589454203	827.4997394070085	-414.4865650018427	4074.333511531505	812.0033938893064	-425.3566095397469	4088.6037636182496	802.2999783733105	-426.41004529623524	4101.722747607175	794.4257564648408	-422.654388666068
